<svg width="1200" height="630" viewBox="0 0 1200 630" fill="none" xmlns="http://www.w3.org/2000/svg">
  <defs>
    <linearGradient id="bg" x1="0" y1="0" x2="1" y2="1">
      <stop offset="0%" stop-color="#F8FAFC" />
      <stop offset="100%" stop-color="#EEF2FF" />
    </linearGradient>
    <linearGradient id="accent" x1="0" y1="0" x2="1" y2="1">
      <stop offset="0%" stop-color="#A855F7" />
      <stop offset="100%" stop-color="#7C3AED" />
    </linearGradient>
  </defs>
  <rect width="1200" height="630" fill="url(#bg)" />
  <circle cx="1040" cy="120" r="140" fill="#E9D5FF" opacity="0.6" />
  <circle cx="120" cy="520" r="180" fill="#DDD6FE" opacity="0.7" />
  <rect x="120" y="160" width="96" height="96" rx="24" fill="url(#accent)" />
  <path d="M156 224H180C194.359 224 206 212.359 206 198V184C206 169.641 194.359 158 180 158H156C141.641 158 130 169.641 130 184V198C130 212.359 141.641 224 156 224Z" fill="white" />
  <text x="240" y="212" font-family="Space Grotesk, Manrope, Segoe UI, sans-serif" font-size="64" font-weight="700" fill="#0F172A">Guidra</text>
  <text x="240" y="280" font-family="Manrope, Segoe UI, sans-serif" font-size="28" fill="#475569">Personalized AI learning paths for real progress</text>
  <rect x="240" y="320" width="220" height="44" rx="22" fill="#EDE9FE" />
  <text x="260" y="350" font-family="Manrope, Segoe UI, sans-serif" font-size="18" fill="#6D28D9">Start learning faster</text>
</svg>
